<svg xmlns="http://www.w3.org/2000/svg" viewBox="0 0 64 64" role="img" aria-labelledby="title">
  <title id="title">StationK9</title>
  <rect width="64" height="64" fill="#211f1c"/>
  <g transform="translate(8 8) scale(.75)">
    <path d="M48.7 12.3C41 6.8 24.2 6.1 15.3 14.8 5.5 24.5 12.2 35.1 27.6 37.4c7.3 1.1 10.3 2.9 7.9 6.4-2.8 4-12.7 3.7-19.6-1.7l-5 7.7c10.9 8.9 27.4 8.4 36-2.4 8.1-10.2 1.8-20.1-13.6-22.5-7.5-1.2-10.6-3.1-7.7-6 3.1-3.2 11.9-2.4 18.1 1.5Z" fill="#f1ebdd"/>
    <path d="m21 25 15.3 8.8L24.8 39Z" fill="#cf7658"/>
  </g>
</svg>
